<?xml version="1.0" encoding="UTF-8" standalone="no"?>
<svg
   xmlns:dc="http://purl.org/dc/elements/1.1/"
   xmlns:cc="http://creativecommons.org/ns#"
   xmlns:rdf="http://www.w3.org/1999/02/22-rdf-syntax-ns#"
   xmlns:svg="http://www.w3.org/2000/svg"
   xmlns="http://www.w3.org/2000/svg"
   xmlns:xlink="http://www.w3.org/1999/xlink"
   xmlns:sodipodi="http://sodipodi.sourceforge.net/DTD/sodipodi-0.dtd"
   xmlns:inkscape="http://www.inkscape.org/namespaces/inkscape"
   version="1.1"
   id="Layer_1"
   x="0px"
   y="0px"
   width="1000"
   height="999.99298"
   viewBox="0 0 1000 999.993"
   enable-background="new 0 0 612 792"
   xml:space="preserve"
   inkscape:version="0.92.4 (5da689c313, 2019-01-14)"
   sodipodi:docname="uplay.svg"><sodipodi:namedview
     pagecolor="#ffffff"
     bordercolor="#666666"
     borderopacity="1"
     objecttolerance="10"
     gridtolerance="10"
     guidetolerance="10"
     inkscape:pageopacity="0"
     inkscape:pageshadow="2"
     inkscape:window-width="1366"
     inkscape:window-height="707"
     id="namedview57"
     showgrid="false"
     inkscape:zoom="0.35355339"
     inkscape:cx="413.09808"
     inkscape:cy="434.47799"
     inkscape:window-x="0"
     inkscape:window-y="24"
     inkscape:window-maximized="1"
     inkscape:current-layer="Layer_1" /><metadata
     id="metadata103"><rdf:RDF><cc:Work
         rdf:about=""><dc:format>image/svg+xml</dc:format><dc:type
           rdf:resource="http://purl.org/dc/dcmitype/StillImage" /><dc:title /></cc:Work></rdf:RDF></metadata><defs
     id="defs101"><radialGradient
       id="SVGID_4_"
       cx="272.02591"
       cy="166.35941"
       r="183.2394"
       gradientUnits="userSpaceOnUse"><stop
         offset="0.2247"
         style="stop-color:#FFFFFF"
         id="stop37" /><stop
         offset="0.5225"
         style="stop-color:#B2CFEC"
         id="stop39" /><stop
         offset="0.7833"
         style="stop-color:#5777B9"
         id="stop41" /><stop
         offset="1"
         style="stop-color:#120840"
         id="stop43" /></radialGradient><radialGradient
       id="SVGID_5_"
       cx="505.9873"
       cy="330.75629"
       r="412.80569"
       gradientUnits="userSpaceOnUse"><stop
         offset="0.2247"
         style="stop-color:#FFFFFF"
         id="stop48" /><stop
         offset="0.5225"
         style="stop-color:#B2CFEC"
         id="stop50" /><stop
         offset="0.7921"
         style="stop-color:#5777B9"
         id="stop52" /><stop
         offset="1"
         style="stop-color:#3B3776"
         id="stop54" /></radialGradient><radialGradient
       id="SVGID_6_"
       cx="68.642601"
       cy="-18.9795"
       r="208.8779"
       gradientUnits="userSpaceOnUse"><stop
         offset="0"
         style="stop-color:#E3ECF7"
         id="stop59" /><stop
         offset="0.6667"
         style="stop-color:#495896"
         id="stop61" /><stop
         offset="1"
         style="stop-color:#5777B9"
         id="stop63" /></radialGradient></defs><g
     id="g7"
     transform="matrix(3.3568047,0,0,3.3568047,-340.0994,-9.0302161)"><defs
       id="defs9"><path
         id="SVGID_1_"
         d="m 399.826,151.642 c 0,82.113 -66.561,148.671 -148.673,148.671 -82.115,0 -148.674,-66.558 -148.674,-148.671 0,-82.113 66.559,-148.675 148.674,-148.675 82.113,0 148.673,66.562 148.673,148.675 z"
         inkscape:connector-curvature="0" /></defs><radialGradient
       id="SVGID_2_"
       cx="259.478"
       cy="191.5742"
       r="150.9774"
       gradientUnits="userSpaceOnUse"><stop
         offset="0"
         style="stop-color:#E3ECF7"
         id="stop13" /><stop
         offset="0.3202"
         style="stop-color:#B2CFEC"
         id="stop15" /><stop
         offset="0.6573"
         style="stop-color:#5777B9"
         id="stop17" /><stop
         offset="0.7138"
         style="stop-color:#526DAE"
         id="stop19" /><stop
         offset="0.8124"
         style="stop-color:#465191"
         id="stop21" /><stop
         offset="0.89"
         style="stop-color:#3B3776"
         id="stop23" /><stop
         offset="1"
         style="stop-color:#2A063F"
         id="stop25" /></radialGradient><clipPath
       id="SVGID_3_"><use
         xlink:href="#SVGID_1_"
         overflow="visible"
         id="use30"
         style="overflow:visible"
         x="0"
         y="0"
         width="100%"
         height="100%" /></clipPath><g
       clip-path="url(#SVGID_3_)"
       id="g32"
       style="opacity:0.75" /></g><path
     style="fill:#0070ff;fill-opacity:1;stroke-width:3.35680461"
     d="M 500.00655,-4.4607422e-4 C 223.9592,-4.4607422e-4 0,223.95553 0,499.99955 0,776.08395 223.9592,999.993 500.00655,999.993 776.07081,999.993 1000,776.08056 1000,499.99955 1000,223.95888 776.07081,-4.4607422e-4 500.00655,-4.4607422e-4 Z m 0,48.42455007422 c 249.32821,0 451.56892,202.268496 451.56892,451.575446 0,249.34339 -202.24071,451.56892 -451.56892,451.56892 -249.31301,0 -451.582022,-202.22247 -451.582022,-451.56892 0,-249.30999 202.269012,-451.575446 451.582022,-451.575446 z m -5.39579,69.483226 c -109.0775,0.76662 -216.97071,48.39264 -291.09137,139.61555 -91.19388,112.23369 -107.374256,260.86384 -55.00702,385.4687 l -2.55036,-9.91963 c -4.28876,-19.77021 -6.51695,-40.30595 -6.51695,-61.37313 0,-158.60211 127.92011,-287.19038 285.70211,-287.19038 142.94149,0 261.91907,94.83701 281.39467,236.40559 20.44449,148.60915 -71.64397,247.37522 -174.66531,255.5761 -103.48305,8.2343 -196.57068,-61.36599 -208.8234,-164.45722 -12.23755,-103.09731 61.3695,-196.56602 164.46376,-208.84307 60.06994,-7.13474 116.87733,14.96094 156.275,54.98734 C 593.80899,386.4741 506.96526,343.90646 414.113,354.96854 280.03155,370.89343 184.19628,492.55577 200.13637,626.64024 c 0,0 24.16963,251.38927 309.52099,249.89183 210.82963,-1.11774 374.91615,-167.84219 374.91313,-374.9328 0,-121.48854 -59.0983,-230.44547 -148.67627,-298.9654 l 0.0459,0.0655 C 665.0009,145.06199 579.44877,117.31104 494.61074,117.90731 Z m 17.51178,325.56416 c -47.41255,-0.14584 -93.83012,20.8654 -117.60621,53.27615 -40.04392,54.58658 -30.26789,110.37329 -17.64288,144.24425 -7.83334,-33.55073 -2.38511,-65.29113 21.03904,-94.08231 40.18434,-49.44224 106.00108,-58.54697 155.45547,-18.3444 49.44832,40.15398 52.35659,105.39706 20.34405,152.61004 -23.40291,28.79425 -55.61015,44.07623 -90.01743,43.2713 52.60416,10.25417 101.09543,-5.51808 139.40574,-52.65988 38.31029,-47.14178 45.87066,-138.45996 -19.19673,-195.17325 -26.43364,-23.0398 -59.34094,-33.04212 -91.78105,-33.1419 z m -69.60127,105.22139 c -28.18373,13.55881 -46.14166,41.40606 -41.23232,79.34385 4.90933,37.93782 35.35753,62.54916 75.26584,64.43491 39.90832,1.88577 76.7127,-40.92535 75.46256,-73.16784 -1.25011,-32.24246 -10.37293,-51.31462 -37.26576,-67.22131 15.3235,12.96954 20.797,28.87729 19.72777,53.46628 -1.06928,24.58899 -28.90697,49.77311 -59.70785,48.43765 -30.80091,-1.33544 -55.36105,-28.42361 -55.36105,-53.26306 0.9082,-21.66854 6.71815,-40.41556 23.11081,-52.03048 z"
     id="path4326"
     inkscape:connector-curvature="0" /><g
     id="g67"
     transform="matrix(3.3568047,0,0,3.3568047,-340.0994,-9.0302161)"><defs
       id="defs69"><path
         id="SVGID_7_"
         d="m 102.479,151.642 c 0,-82.126 66.551,-148.675 148.674,-148.675 82.126,0 148.673,66.549 148.673,148.675 0,82.135 -66.547,148.671 -148.673,148.671 -82.123,0 -148.674,-66.536 -148.674,-148.671 z"
         inkscape:connector-curvature="0" /></defs><clipPath
       id="SVGID_8_"><use
         xlink:href="#SVGID_7_"
         overflow="visible"
         id="use73"
         style="overflow:visible"
         x="0"
         y="0"
         width="100%"
         height="100%" /></clipPath><g
       transform="translate(-3.814697e-6,1.525879e-5)"
       clip-path="url(#SVGID_8_)"
       id="g75"
       style="opacity:0.3" /></g></svg>